# xmcd
#
# Track frame offsets:
#	150
#	17732
#	32385
#	44972
#	60780
#	80537
#	94192
#	111657
#	126980
#	140070
#	156307
#	173140
#
# Disc length: 2486 seconds
#
# Revision: 0
# Processed by: cddbd v1.5.2PL0 Copyright (c) Steve Scherf et al.
# Submitted via: audiograbber 1.83.01
#
DISCID=a609b40c
DTITLE=Various Artist - Freihei pur
DYEAR=1997
DGENRE=Country
TTITLE0=Gunter Gabriel - (WIR SIND) DIE FAHRER
TTITLE1=Linda Feller - SCHATTEN AUS GOLD
TTITLE2=Jonny Hill - HAT ER DAS RECHT SIE ZU BERÜHR'N?
TTITLE3=IrisMcCollins - ES KANN NUR BESSER WERDEN
TTITLE4=Billy White -The Voice of Country - DAS WAR HEUTE NICHT MEIN TAG
TTITLE5=Joe Hodgkins Boss Band - PORTLAND DAHEIM
TTITLE6=Gunter Gabriel - MEIN ALTER VW
TTITLE7=Dagmar - DARF EIN TRUCK MIT SEINEM FAHRER
TTITLE8=Billy White-The Voice of Country - DU HAST GEPOKERT MIT DEM GLÜCK
TTITLE9=Queens of Heart - FREIHEIT PUR
TTITLE10=Mike Herman and Booze Company - ES BLÜHEN KEINE ROSEN IM ASPHALT
TTITLE11=Original Zitronentaler - SCHE WIRD JEDER TAG
EXTD=
EXTT0=
EXTT1=
EXTT2=
EXTT3=
EXTT4=
EXTT5=
EXTT6=
EXTT7=
EXTT8=
EXTT9=
EXTT10=
EXTT11=
PLAYORDER=
